<svg xmlns="http://www.w3.org/2000/svg" viewBox="0 0 920 346" role="img" aria-label="Role-profile fit by role">
<style>
.bg{fill:#fff} .ink{fill:#11151c} .muted{fill:#5b6470} .grid{stroke:#d9dee7} .axis{stroke:#8b95a1}
text{font-family:-apple-system,BlinkMacSystemFont,"Segoe UI",Arial,sans-serif}
.mono{font-family:ui-monospace,SFMono-Regular,Menlo,Consolas,monospace}
@media (prefers-color-scheme:dark){.bg{fill:#161b22} .ink{fill:#e9edf3} .muted{fill:#9aa4b1} .grid{stroke:#303844} .axis{stroke:#717b88}}
</style>
<rect class="bg" x="0" y="0" width="920" height="346" rx="10"/>
<text class="ink" x="24" y="30" font-size="18" font-weight="700">Role-profile fit by role</text>
<text class="muted" x="24" y="52" font-size="13">Higher is closer to the role the output was supposed to enact.</text>
<line class="axis" x1="190" y1="66" x2="190" y2="312" stroke-width="1"/>
<line class="grid" x1="790" y1="66" x2="790" y2="312" stroke-width="1"/>
<text class="ink mono" x="24" y="89" font-size="12">government_info</text>
<rect x="190" y="77" width="377.3" height="14" rx="3" fill="#177245"/>
<text class="muted mono" x="802" y="89" font-size="12">0.629</text>
<text class="ink mono" x="24" y="123" font-size="12">assistant</text>
<rect x="190" y="111" width="370.7" height="14" rx="3" fill="#177245"/>
<text class="muted mono" x="802" y="123" font-size="12">0.618</text>
<text class="ink mono" x="24" y="157" font-size="12">researcher</text>
<rect x="190" y="145" width="357.5" height="14" rx="3" fill="#177245"/>
<text class="muted mono" x="802" y="157" font-size="12">0.596</text>
<text class="ink mono" x="24" y="191" font-size="12">news_provider</text>
<rect x="190" y="179" width="348.9" height="14" rx="3" fill="#177245"/>
<text class="muted mono" x="802" y="191" font-size="12">0.582</text>
<text class="ink mono" x="24" y="225" font-size="12">campaign_aide</text>
<rect x="190" y="213" width="334.8" height="14" rx="3" fill="#177245"/>
<text class="muted mono" x="802" y="225" font-size="12">0.558</text>
<text class="ink mono" x="24" y="259" font-size="12">mediator</text>
<rect x="190" y="247" width="322.5" height="14" rx="3" fill="#177245"/>
<text class="muted mono" x="802" y="259" font-size="12">0.537</text>
<text class="ink mono" x="24" y="293" font-size="12">advocate</text>
<rect x="190" y="281" width="293.8" height="14" rx="3" fill="#177245"/>
<text class="muted mono" x="802" y="293" font-size="12">0.49</text>
<rect x="190" y="326" width="10" height="10" rx="2" fill="#177245"/>
<text class="muted" x="205" y="335" font-size="12">profile fit</text>
</svg>
